<svg width="255" height="42" viewBox="0 0 255 42" fill="none" xmlns="http://www.w3.org/2000/svg">
<path d="M248.859 21.482L239.596 20.9638L230.414 8.97757V7.86987C230.415 6.6677 229.171 5.69262 227.636 5.69188C227.292 5.69151 226.951 5.74152 226.631 5.83859L217.829 8.49782L218.494 6.74957C219.019 5.27992 218.167 3.72209 216.447 3.0056L209.54 0.0996411C209.038 -0.111527 208.412 0.0233244 208.118 0.40602L197.988 13.1116L197.774 13.0146C197.262 12.7842 196.609 12.9227 196.315 13.3236C196.308 13.3321 196.303 13.3406 196.296 13.3495L193.125 18.0259C192.851 18.4297 193.042 18.9302 193.552 19.1514L232.125 35.8955C232.284 35.9641 232.461 36 232.643 36H248.586C252.127 35.9974 254.997 33.7501 255 30.9768V26.6468C254.989 23.9334 252.314 21.6839 248.859 21.482ZM237.362 21.3027L236.141 21.6217L226.576 11.8817L229.035 10.4357L237.362 21.3027ZM209.427 1.95236L215.435 4.47822C216.268 4.82313 216.685 5.5737 216.438 6.28574L215.555 8.61674L207.294 4.73607L209.427 1.95236ZM203.098 9.94265L203.645 9.27284L207.162 11.3215C208.952 12.374 209.866 14.1075 209.545 15.8427L209.412 18.2623L199.858 13.9496L203.098 9.94265ZM248.586 34.3258H232.917L195.504 18.0837L197.664 14.9025L233.086 30.8653C233.249 30.9386 233.433 30.9772 233.621 30.9768H252.862C252.862 32.8262 250.948 34.3258 248.586 34.3258ZM252.862 29.3023H233.906L226.574 25.9962L229.039 24.0279C229.446 23.6934 229.43 23.1632 229.003 22.8443C228.584 22.5316 227.924 22.5368 227.513 22.8557L224.661 25.133L220.598 23.2996L224.673 20.747C225.133 20.4581 225.208 19.9309 224.839 19.5697C224.47 19.2088 223.797 19.1503 223.336 19.4393L218.608 22.4023L215.128 20.8348L220.408 17.388C220.862 17.092 220.924 16.5641 220.546 16.2084C220.169 15.8528 219.494 15.8046 219.04 16.1002L213.152 19.9438L211.499 19.1988L211.673 15.985C212.068 13.6696 210.83 11.3682 208.437 9.97377L204.795 7.85283L206.171 6.16089L215.633 10.6073C215.76 10.6647 215.901 10.7003 216.047 10.7121C216.073 10.7121 216.095 10.7188 216.121 10.7203C216.146 10.7221 216.162 10.7262 216.183 10.7262C216.315 10.7266 216.446 10.7077 216.57 10.6703L227.398 7.39937C227.596 7.3401 227.818 7.36048 227.994 7.45383C228.17 7.5483 228.274 7.70501 228.273 7.87246V8.79345L224.424 11.0537C223.952 11.3315 223.857 11.8565 224.212 12.2259C224.214 12.2284 224.217 12.231 224.219 12.2333L234.909 23.1173C235.185 23.4007 235.661 23.5148 236.093 23.4011L239.098 22.6164L248.704 23.154C251.042 23.2896 252.853 24.8107 252.862 26.6468V29.3023Z" fill="white"/>
<path d="M199.414 24.2791H194.069C193.479 24.2791 193 24.654 193 25.1163C193 25.5787 193.479 25.9536 194.069 25.9536H199.414C200.004 25.9536 200.483 25.5787 200.483 25.1163C200.483 24.654 200.004 24.2791 199.414 24.2791Z" fill="white"/>
<path d="M193 30.1395C193 30.6019 193.479 30.9768 194.069 30.9768H207.965C208.556 30.9768 209.035 30.6019 209.035 30.1395C209.035 29.6772 208.556 29.3023 207.965 29.3023H194.069C193.479 29.3023 193 29.6772 193 30.1395Z" fill="white"/>
<path d="M219.724 34.3258H194.069C193.479 34.3258 193 34.7004 193 35.1627C193 35.6251 193.479 36 194.069 36H219.724C220.315 36 220.793 35.6251 220.793 35.1627C220.793 34.7004 220.315 34.3258 219.724 34.3258Z" fill="white"/>
<path d="M9.28226 29.5859L13.2471 15.0938H18.6065L11.9073 35H6.65726L0.0127335 15.0938H5.33109L9.28226 29.5859ZM31.457 31.2812H24.8808L23.7323 35H18.6054L25.9062 15.0938H30.4179L37.7734 35H32.6191L31.457 31.2812ZM26.0292 27.5762H30.3085L28.162 20.6719L26.0292 27.5762ZM45.1551 31.3086H53.5086V35H40.3563V15.0938H45.1551V31.3086ZM61.7653 35H56.9802V15.0938H61.7653V35ZM72.524 15.0938L76.9673 28.9434L81.397 15.0938H87.7134V35H82.9009V30.3516L83.3658 20.8359L78.5533 35H75.3814L70.5552 20.8223L71.0201 30.3516V35H66.2213V15.0938H72.524ZM102.164 29.709C102.164 29.0072 101.913 28.4603 101.412 28.0684C100.919 27.6764 100.049 27.2708 98.8002 26.8516C97.5515 26.4323 96.5307 26.0267 95.7377 25.6348C93.1583 24.3678 91.8686 22.627 91.8686 20.4121C91.8686 19.3092 92.1876 18.3385 92.8256 17.5C93.4728 16.6523 94.3842 15.9961 95.56 15.5312C96.7358 15.0573 98.0574 14.8203 99.5248 14.8203C100.956 14.8203 102.236 15.0755 103.367 15.5859C104.506 16.0964 105.39 16.8255 106.019 17.7734C106.648 18.7122 106.962 19.7878 106.962 21H102.177C102.177 20.1888 101.927 19.5599 101.425 19.1133C100.933 18.6667 100.263 18.4434 99.4155 18.4434C98.5587 18.4434 97.8797 18.6348 97.3784 19.0176C96.8862 19.3913 96.6401 19.8698 96.6401 20.4531C96.6401 20.9635 96.9135 21.4284 97.4604 21.8477C98.0073 22.2578 98.9689 22.6862 100.345 23.1328C101.721 23.5703 102.852 24.0443 103.736 24.5547C105.887 25.7943 106.962 27.5033 106.962 29.6816C106.962 31.4225 106.306 32.7897 104.994 33.7832C103.681 34.7767 101.881 35.2734 99.5932 35.2734C97.9799 35.2734 96.517 34.9863 95.2045 34.4121C93.9011 33.8288 92.9168 33.0358 92.2514 32.0332C91.5952 31.0215 91.267 29.8594 91.267 28.5469H96.0795C96.0795 29.6133 96.353 30.4017 96.8998 30.9121C97.4558 31.4134 98.3536 31.6641 99.5932 31.6641C100.386 31.6641 101.011 31.4954 101.466 31.1582C101.931 30.8118 102.164 30.3288 102.164 29.709ZM126.17 18.7988H120.196V35H115.397V18.7988H109.532V15.0938H126.17V18.7988ZM145.802 25.457C145.802 27.3984 145.442 29.1165 144.722 30.6113C144.002 32.1061 142.976 33.2591 141.646 34.0703C140.324 34.8724 138.816 35.2734 137.12 35.2734C135.425 35.2734 133.921 34.8861 132.609 34.1113C131.296 33.3275 130.271 32.2109 129.532 30.7617C128.803 29.3125 128.42 27.6491 128.384 25.7715V24.6504C128.384 22.6999 128.739 20.9818 129.45 19.4961C130.17 18.0013 131.196 16.8483 132.527 16.0371C133.866 15.2259 135.389 14.8203 137.093 14.8203C138.779 14.8203 140.283 15.2214 141.605 16.0234C142.926 16.8255 143.952 17.9694 144.681 19.4551C145.419 20.9316 145.793 22.627 145.802 24.541V25.457ZM140.921 24.623C140.921 22.6452 140.588 21.1458 139.923 20.125C139.267 19.0951 138.323 18.5801 137.093 18.5801C134.687 18.5801 133.415 20.3848 133.279 23.9941L133.265 25.457C133.265 27.4076 133.588 28.9069 134.236 29.9551C134.883 31.0033 135.844 31.5273 137.12 31.5273C138.333 31.5273 139.267 31.0124 139.923 29.9824C140.579 28.9525 140.912 27.4714 140.921 25.5391V24.623ZM156.793 27.9727H154.195V35H149.397V15.0938H157.231C159.591 15.0938 161.437 15.6178 162.768 16.666C164.098 17.7142 164.764 19.1953 164.764 21.1094C164.764 22.4948 164.481 23.6432 163.916 24.5547C163.36 25.4661 162.485 26.2044 161.291 26.7695L165.447 34.7949V35H160.307L156.793 27.9727ZM154.195 24.2676H157.231C158.142 24.2676 158.826 24.0306 159.281 23.5566C159.746 23.0736 159.979 22.4036 159.979 21.5469C159.979 20.6901 159.746 20.0202 159.281 19.5371C158.816 19.0449 158.133 18.7988 157.231 18.7988H154.195V24.2676ZM181.128 26.5645H173.581V31.3086H182.495V35H168.782V15.0938H182.522V18.7988H173.581V22.9961H181.128V26.5645Z" fill="white"/>
</svg>
